<svg xmlns="http://www.w3.org/2000/svg" viewBox="0 0 1427.21 543.04"><defs><style>.cls-1{fill:#2166eb;}.cls-2{fill:#1400b4;}.cls-3{font-size:139.7px;font-family:NeueHaasDisplay-Bold, Neue Haas Grotesk Display Pro;font-weight:700;}.cls-4{letter-spacing:-0.01em;}.cls-5{letter-spacing:-0.12em;}</style></defs><title>SVG5</title><g id="Layer_2" data-name="Layer 2"><g id="Layer_1-2" data-name="Layer 1"><path class="cls-1" d="M518.65,223.45l-86.28,45-43.23,25-28.55,16.49-14.69,8.48-43.24,24.95-5.57,3.22,2.26,1.31L259.42,371V324.52L244.74,316l-28.55-16.48L173,274.6l-43.23-25L95,229.57l-8.48-4.9-43.24-25L0,174.75V274.6l43.24,25L71.78,316l14.7,8.49,43.23,25,43.24,25,38,21.95h-.09l-.1,0L173,418.26l-43.24,25-43.23,25L61,482.88,43.53,493a.21.21,0,0,0,0,.35l43,24.79L129.61,543a.18.18,0,0,0,.2,0L173,518.11l43.24-25L234,482.88l25.44-14.7,43.24-25,43.24-25,37.86-21.86,5.37-3.1,86.48-49.94h0l43.13-24.89a.22.22,0,0,0,.1-.18V223.65A.2.2,0,0,0,518.65,223.45Z"></path><polygon class="cls-2" points="299.35 347.89 297.09 346.58 259.42 324.85 259.42 370.95 299.35 347.89"></polygon><polygon class="cls-2" points="86.48 174.74 129.72 149.78 141.3 143.09 172.95 124.82 216.19 99.86 216.2 99.86 259.42 124.82 291.07 143.09 302.66 149.78 345.9 174.75 389.13 199.71 432.37 224.66 432.37 124.82 389.14 99.86 345.9 74.89 314.26 56.62 302.66 49.92 259.42 24.96 216.19 0 172.95 24.97 129.71 49.92 118.12 56.62 86.48 74.88 0 124.82 0 174.75 43.24 199.71 86.48 174.74"></polygon><text class="cls-3" transform="translate(584.42 224.66)">C<tspan class="cls-4" x="98.07" y="0">r</tspan><tspan x="150.17" y="0">ea8genius</tspan><tspan class="cls-5" x="0" y="154.19">T</tspan><tspan x="71.11" y="154.19">echnologies</tspan></text></g></g></svg>